# xmcd CD database file
#
# Track frame offsets:
#	150
#	26048
#	54702
#	82605
#	106828
#	133574
#	170908
#	198753
#	237061
#
# Disc length: 3392 seconds
#
# Revision: 0
# Processed by: cddbd v1.5.1PL0 Copyright (c) Steve Scherf et al.
# Submitted via: CDex 1.51
#
DISCID=6a0d3e09
DTITLE=Sheryl Bailey - Bulls Eye
DYEAR=2003
DGENRE=Jazz
TTITLE0=Old and Young Blues
TTITLE1=Elvin People
TTITLE2=Swamp Thing
TTITLE3=Sue's Samba
TTITLE4=Valtz Med
TTITLE5=Two Brothers
TTITLE6=Song For All Souls
TTITLE7=Fog
TTITLE8=Bull's Eye
EXTD=YEAR: 2003
EXTT0=
EXTT1=
EXTT2=
EXTT3=
EXTT4=
EXTT5=
EXTT6=
EXTT7=
EXTT8=
PLAYORDER=
